<mxfile host="app.diagrams.net" modified="2021-01-04T05:40:29.372Z" agent="5.0 (Windows NT 6.1; Win64; x64) AppleWebKit/537.36 (KHTML, like Gecko) Chrome/87.0.4280.88 Safari/537.36" etag="X17RZtfOPS1tcbZsiWIi" version="14.1.2" type="github">
  <diagram id="uWKkedQKtipZVB6xBhCK" name="Page-1">
    <mxGraphModel dx="868" dy="450" grid="1" gridSize="10" guides="1" tooltips="1" connect="1" arrows="1" fold="1" page="1" pageScale="1" pageWidth="850" pageHeight="1100" math="0" shadow="0">
      <root>
        <mxCell id="0" />
        <mxCell id="1" parent="0" />
        <mxCell id="9PK7loWZLQatPgG1FVjJ-1" value="Client 1" style="ellipse;whiteSpace=wrap;html=1;aspect=fixed;" vertex="1" parent="1">
          <mxGeometry x="100" y="60" width="60" height="60" as="geometry" />
        </mxCell>
        <mxCell id="9PK7loWZLQatPgG1FVjJ-2" value="Client 2&lt;br&gt;" style="ellipse;whiteSpace=wrap;html=1;aspect=fixed;" vertex="1" parent="1">
          <mxGeometry x="100" y="160" width="60" height="60" as="geometry" />
        </mxCell>
        <mxCell id="9PK7loWZLQatPgG1FVjJ-3" value="Client 3" style="ellipse;whiteSpace=wrap;html=1;aspect=fixed;" vertex="1" parent="1">
          <mxGeometry x="100" y="260" width="60" height="60" as="geometry" />
        </mxCell>
        <mxCell id="9PK7loWZLQatPgG1FVjJ-4" value="Server" style="ellipse;whiteSpace=wrap;html=1;aspect=fixed;" vertex="1" parent="1">
          <mxGeometry x="310" y="140" width="100" height="100" as="geometry" />
        </mxCell>
        <mxCell id="9PK7loWZLQatPgG1FVjJ-5" value="Service Now API" style="whiteSpace=wrap;html=1;aspect=fixed;" vertex="1" parent="1">
          <mxGeometry x="510" y="110" width="80" height="80" as="geometry" />
        </mxCell>
        <mxCell id="9PK7loWZLQatPgG1FVjJ-6" value="Service Now DB&lt;br&gt;" style="shape=cylinder3;whiteSpace=wrap;html=1;boundedLbl=1;backgroundOutline=1;size=15;" vertex="1" parent="1">
          <mxGeometry x="520" y="240" width="60" height="80" as="geometry" />
        </mxCell>
        <mxCell id="9PK7loWZLQatPgG1FVjJ-9" value="" style="endArrow=classic;startArrow=classic;html=1;exitX=1.033;exitY=0.633;exitDx=0;exitDy=0;exitPerimeter=0;entryX=0.04;entryY=0.21;entryDx=0;entryDy=0;entryPerimeter=0;" edge="1" parent="1" source="9PK7loWZLQatPgG1FVjJ-1" target="9PK7loWZLQatPgG1FVjJ-4">
          <mxGeometry width="50" height="50" relative="1" as="geometry">
            <mxPoint x="410" y="240" as="sourcePoint" />
            <mxPoint x="460" y="190" as="targetPoint" />
            <Array as="points" />
          </mxGeometry>
        </mxCell>
        <mxCell id="9PK7loWZLQatPgG1FVjJ-10" value="" style="endArrow=classic;startArrow=classic;html=1;exitX=1;exitY=0.5;exitDx=0;exitDy=0;entryX=0;entryY=0.5;entryDx=0;entryDy=0;" edge="1" parent="1" source="9PK7loWZLQatPgG1FVjJ-2" target="9PK7loWZLQatPgG1FVjJ-4">
          <mxGeometry width="50" height="50" relative="1" as="geometry">
            <mxPoint x="420" y="250" as="sourcePoint" />
            <mxPoint x="470" y="200" as="targetPoint" />
            <Array as="points" />
          </mxGeometry>
        </mxCell>
        <mxCell id="9PK7loWZLQatPgG1FVjJ-11" value="" style="endArrow=classic;startArrow=classic;html=1;exitX=1;exitY=0.4;exitDx=0;exitDy=0;exitPerimeter=0;entryX=0.05;entryY=0.72;entryDx=0;entryDy=0;entryPerimeter=0;" edge="1" parent="1" source="9PK7loWZLQatPgG1FVjJ-3" target="9PK7loWZLQatPgG1FVjJ-4">
          <mxGeometry width="50" height="50" relative="1" as="geometry">
            <mxPoint x="430" y="260" as="sourcePoint" />
            <mxPoint x="480" y="210" as="targetPoint" />
            <Array as="points" />
          </mxGeometry>
        </mxCell>
        <mxCell id="9PK7loWZLQatPgG1FVjJ-14" value="" style="endArrow=classic;startArrow=classic;html=1;entryX=0;entryY=0.5;entryDx=0;entryDy=0;exitX=0.97;exitY=0.28;exitDx=0;exitDy=0;exitPerimeter=0;" edge="1" parent="1" source="9PK7loWZLQatPgG1FVjJ-4" target="9PK7loWZLQatPgG1FVjJ-5">
          <mxGeometry width="50" height="50" relative="1" as="geometry">
            <mxPoint x="400" y="230" as="sourcePoint" />
            <mxPoint x="450" y="180" as="targetPoint" />
          </mxGeometry>
        </mxCell>
        <mxCell id="9PK7loWZLQatPgG1FVjJ-15" value="" style="endArrow=classic;startArrow=classic;html=1;exitX=0.97;exitY=0.66;exitDx=0;exitDy=0;exitPerimeter=0;entryX=0;entryY=0.5;entryDx=0;entryDy=0;entryPerimeter=0;" edge="1" parent="1" source="9PK7loWZLQatPgG1FVjJ-4" target="9PK7loWZLQatPgG1FVjJ-6">
          <mxGeometry width="50" height="50" relative="1" as="geometry">
            <mxPoint x="400" y="230" as="sourcePoint" />
            <mxPoint x="450" y="180" as="targetPoint" />
          </mxGeometry>
        </mxCell>
      </root>
    </mxGraphModel>
  </diagram>
</mxfile>
